# xmcd CD database file
#
# Track frame offsets:
#	150
#	13670
#	30828
#	51228
#	72926
#	94073
#	110057
#	132890
#	149657
#	166526
#	191581
#	206336
#	222496
#	245716
#	262226
#	284423
#	300510
#	313059
#
# Disc length: 4388 seconds
#
# Revision: 1
# Processed by: cddbd v1.5.2PL0 Copyright (c) Steve Scherf et al.
# Submitted via: CDex 1.51
#
DISCID=10112212
DTITLE=Hnos Lebron - Lo Mejor
DYEAR=2008
DGENRE=Salsa
TTITLE0=Che Mania 
TTITLE1=Salsa y Control
TTITLE2=Falta
TTITLE3=Temperatura
TTITLE4=Yo soy lo que necesitabas
TTITLE5=Fe
TTITLE6=Experiencia te habla
TTITLE7=Piensalo bien
TTITLE8=Ven y ves
TTITLE9=Pena y dolor
TTITLE10=Vacilon
TTITLE11=Apagame el fuego
TTITLE12=Diez lagrimas
TTITLE13=El balcon aquel
TTITLE14=Que pena
TTITLE15=Sin negro no hay guaguanco
TTITLE16=Mi fracaso
TTITLE17=Regresa a mi
EXTD=YEAR: 2008
EXTT0=
EXTT1=
EXTT2=
EXTT3=
EXTT4=
EXTT5=
EXTT6=
EXTT7=
EXTT8=
EXTT9=
EXTT10=
EXTT11=
EXTT12=
EXTT13=
EXTT14=
EXTT15=
EXTT16=
EXTT17=
PLAYORDER=
